<svg viewBox="0 0 26 26" fill="none" xmlns="http://www.w3.org/2000/svg">
<rect width="26" height="26" rx="13" fill="white"/>
<path fill-rule="evenodd" clip-rule="evenodd" d="M1 13C1 6.37258 6.37258 1 13 1C19.6274 1 25 6.37258 25 13C25 19.6274 19.6274 25 13 25C6.37258 25 1 19.6274 1 13ZM13 3C7.47715 3 3 7.47715 3 13C3 18.5228 7.47715 23 13 23C18.5228 23 23 18.5228 23 13C23 7.47715 18.5228 3 13 3Z" fill="#49C9F5"/>
<path d="M15.8068 18.4946H10.1932V19.2473C10.1932 19.4469 10.1154 19.6384 9.97684 19.7795C9.83832 19.9207 9.65044 20 9.45455 20H7.97727C7.78137 20 7.5935 19.9207 7.45498 19.7795C7.31646 19.6384 7.23864 19.4469 7.23864 19.2473V12.7742H6.5V9.76344H7.23864V7.50538C7.23864 7.10613 7.39428 6.72323 7.67132 6.44091C7.94836 6.1586 8.32411 6 8.71591 6H17.2841C17.6759 6 18.0516 6.1586 18.3287 6.44091C18.6057 6.72323 18.7614 7.10613 18.7614 7.50538V9.76344H19.5V12.7742H18.7614V19.2473C18.7614 19.4469 18.6835 19.6384 18.545 19.7795C18.4065 19.9207 18.2186 20 18.0227 20H16.5455C16.3496 20 16.1617 19.9207 16.0232 19.7795C15.8846 19.6384 15.8068 19.4469 15.8068 19.2473V18.4946ZM8.71591 8.4086V12.7742H17.2841V8.4086H8.71591ZM9.67614 16.9892C9.96998 16.9892 10.2518 16.8703 10.4596 16.6586C10.6674 16.4468 10.7841 16.1597 10.7841 15.8602C10.7841 15.5608 10.6674 15.2736 10.4596 15.0619C10.2518 14.8501 9.96998 14.7312 9.67614 14.7312C9.38229 14.7312 9.10048 14.8501 8.89269 15.0619C8.68491 15.2736 8.56818 15.5608 8.56818 15.8602C8.56818 16.1597 8.68491 16.4468 8.89269 16.6586C9.10048 16.8703 9.38229 16.9892 9.67614 16.9892ZM16.3239 16.9892C16.6177 16.9892 16.8995 16.8703 17.1073 16.6586C17.3151 16.4468 17.4318 16.1597 17.4318 15.8602C17.4318 15.5608 17.3151 15.2736 17.1073 15.0619C16.8995 14.8501 16.6177 14.7312 16.3239 14.7312C16.03 14.7312 15.7482 14.8501 15.5404 15.0619C15.3326 15.2736 15.2159 15.5608 15.2159 15.8602C15.2159 16.1597 15.3326 16.4468 15.5404 16.6586C15.7482 16.8703 16.03 16.9892 16.3239 16.9892Z" fill="#667980"/>
</svg>
